<?xml version="1.0" encoding="UTF-8" standalone="no"?>
<!-- Created with Inkscape (http://www.inkscape.org/) -->

<svg
   xmlns:dc="http://purl.org/dc/elements/1.1/"
   xmlns:cc="http://creativecommons.org/ns#"
   xmlns:rdf="http://www.w3.org/1999/02/22-rdf-syntax-ns#"
   xmlns:svg="http://www.w3.org/2000/svg"
   xmlns="http://www.w3.org/2000/svg"
   xmlns:sodipodi="http://sodipodi.sourceforge.net/DTD/sodipodi-0.dtd"
   xmlns:inkscape="http://www.inkscape.org/namespaces/inkscape"
   width="64px"
   height="64px"
   id="svg3150"
   version="1.1"
   inkscape:version="0.48.3.1 r9886"
   sodipodi:docname="galaxy.svg">
  <defs
     id="defs3152" />
  <sodipodi:namedview
     id="base"
     pagecolor="#ffffff"
     bordercolor="#666666"
     borderopacity="1.0"
     inkscape:pageopacity="0.0"
     inkscape:pageshadow="2"
     inkscape:zoom="5.5"
     inkscape:cx="1.0909091"
     inkscape:cy="32"
     inkscape:current-layer="layer1"
     showgrid="true"
     inkscape:document-units="px"
     inkscape:grid-bbox="true"
     inkscape:window-width="1676"
     inkscape:window-height="1046"
     inkscape:window-x="1680"
     inkscape:window-y="0"
     inkscape:window-maximized="0" />
  <metadata
     id="metadata3155">
    <rdf:RDF>
      <cc:Work
         rdf:about="">
        <dc:format>image/svg+xml</dc:format>
        <dc:type
           rdf:resource="http://purl.org/dc/dcmitype/StillImage" />
        <dc:title />
      </cc:Work>
    </rdf:RDF>
  </metadata>
  <g
     id="layer1"
     inkscape:label="Layer 1"
     inkscape:groupmode="layer">
    <path
       style="font-size:medium;font-style:normal;font-variant:normal;font-weight:normal;font-stretch:normal;text-indent:0;text-align:start;text-decoration:none;line-height:normal;letter-spacing:normal;word-spacing:normal;text-transform:none;direction:ltr;block-progression:tb;writing-mode:lr-tb;text-anchor:start;baseline-shift:baseline;color:#000000;fill:#000000;fill-opacity:1;fill-rule:nonzero;stroke:none;stroke-width:5.40100002;marker:none;visibility:visible;display:inline;overflow:visible;enable-background:accumulate;font-family:Sans;-inkscape-font-specification:Sans"
       d="M 4.4375,13.3125 A 2.7007701,2.7007701 0 0 0 2,16 l 0,3.5625 a 2.7007701,2.7007701 0 0 0 2.6875,2.71875 l 54.21875,0 a 2.7007701,2.7007701 0 0 0 2.6875,-2.71875 l 0,-3.5625 a 2.7007701,2.7007701 0 0 0 -2.6875,-2.6875 l -54.21875,0 a 2.7007701,2.7007701 0 0 0 -0.25,0 z"
       id="rect3158"
       inkscape:connector-curvature="0" />
    <path
       style="font-size:medium;font-style:normal;font-variant:normal;font-weight:normal;font-stretch:normal;text-indent:0;text-align:start;text-decoration:none;line-height:normal;letter-spacing:normal;word-spacing:normal;text-transform:none;direction:ltr;block-progression:tb;writing-mode:lr-tb;text-anchor:start;baseline-shift:baseline;color:#000000;fill:#000000;fill-opacity:1;fill-rule:nonzero;stroke:none;stroke-width:3.77280831;marker:none;visibility:visible;display:inline;overflow:visible;enable-background:accumulate;font-family:Sans;-inkscape-font-specification:Sans"
       d="M 3.6875,27.0625 A 1.8865928,1.8865928 0 0 0 2,28.9375 L 2,32.5 a 1.8865928,1.8865928 0 0 0 1.875,1.90625 l 26.46875,0 A 1.8865928,1.8865928 0 0 0 32.21875,32.5 l 0,-3.5625 a 1.8865928,1.8865928 0 0 0 -1.875,-1.875 l -26.46875,0 a 1.8865928,1.8865928 0 0 0 -0.1875,0 z"
       id="rect3158-7"
       inkscape:connector-curvature="0" />
    <path
       style="font-size:medium;font-style:normal;font-variant:normal;font-weight:normal;font-stretch:normal;text-indent:0;text-align:start;text-decoration:none;line-height:normal;letter-spacing:normal;word-spacing:normal;text-transform:none;direction:ltr;block-progression:tb;writing-mode:lr-tb;text-anchor:start;baseline-shift:baseline;color:#000000;fill:#000000;fill-opacity:1;fill-rule:nonzero;stroke:none;stroke-width:3.77280831;marker:none;visibility:visible;display:inline;overflow:visible;enable-background:accumulate;font-family:Sans;-inkscape-font-specification:Sans"
       d="M 33.3125,43.59375 A 1.8865928,1.8865928 0 0 0 31.625,45.5 l 0,3.5625 a 1.8865928,1.8865928 0 0 0 1.875,1.875 l 26.4375,0 a 1.8865928,1.8865928 0 0 0 1.90625,-1.875 l 0,-3.5625 A 1.8865928,1.8865928 0 0 0 59.9375,43.59375 l -26.4375,0 a 1.8865928,1.8865928 0 0 0 -0.1875,0 z"
       id="rect3158-7-7"
       inkscape:connector-curvature="0" />
  </g>
</svg>
