<?xml version="1.0" encoding="UTF-8" standalone="no"?>
<!-- Created with Inkscape (http://www.inkscape.org/) -->

<svg
   xmlns:dc="http://purl.org/dc/elements/1.1/"
   xmlns:cc="http://creativecommons.org/ns#"
   xmlns:rdf="http://www.w3.org/1999/02/22-rdf-syntax-ns#"
   xmlns:svg="http://www.w3.org/2000/svg"
   xmlns="http://www.w3.org/2000/svg"
   xmlns:sodipodi="http://sodipodi.sourceforge.net/DTD/sodipodi-0.dtd"
   xmlns:inkscape="http://www.inkscape.org/namespaces/inkscape"
   version="1.1"
   width="64"
   height="64"
   id="svg3983"
   inkscape:version="0.48.3.1 r9886"
   sodipodi:docname="genomespace-fills.svg">
  <sodipodi:namedview
     pagecolor="#ffffff"
     bordercolor="#666666"
     borderopacity="1"
     objecttolerance="10"
     gridtolerance="10"
     guidetolerance="10"
     inkscape:pageopacity="0"
     inkscape:pageshadow="2"
     inkscape:window-width="1676"
     inkscape:window-height="1046"
     id="namedview4257"
     showgrid="false"
     inkscape:zoom="3.6875"
     inkscape:cx="32"
     inkscape:cy="32"
     inkscape:window-x="1680"
     inkscape:window-y="0"
     inkscape:window-maximized="0"
     inkscape:current-layer="svg3983" />
  <defs
     id="defs3985" />
  <metadata
     id="metadata3988">
    <rdf:RDF>
      <cc:Work
         rdf:about="">
        <dc:format>image/svg+xml</dc:format>
        <dc:type
           rdf:resource="http://purl.org/dc/dcmitype/StillImage" />
        <dc:title />
      </cc:Work>
    </rdf:RDF>
  </metadata>
  <g
     id="g4259"
     transform="matrix(1.0891512,0,0,1.0891512,-3.582897,-3.5400053)">
    <path
       style="font-size:medium;font-style:normal;font-variant:normal;font-weight:normal;font-stretch:normal;text-indent:0;text-align:start;text-decoration:none;line-height:normal;letter-spacing:normal;word-spacing:normal;text-transform:none;direction:ltr;block-progression:tb;writing-mode:lr-tb;text-anchor:start;baseline-shift:baseline;color:#000000;fill:#000000;fill-opacity:1;stroke:none;stroke-width:2.28067422;marker:none;visibility:visible;display:inline;overflow:visible;enable-background:accumulate;font-family:Sans;-inkscape-font-specification:Sans"
       id="path3991"
       d="M 38.65625,9.0625 C 37.435716,9.008509 36.210461,9.1873806 35.0625,9.59375 32.766579,10.406489 30.878886,12.123631 29.90625,14.3125 L 32,15.25 c 0.704351,-1.585107 2.105753,-2.895824 3.8125,-3.5 1.706747,-0.604176 3.747869,-0.514683 5.46875,0.25 1.720881,0.764683 3.179516,2.234629 3.875,3.90625 0.695484,1.671621 0.673101,3.602393 -0.03125,5.1875 L 47.1875,22 C 48.160136,19.811131 48.185567,17.279919 47.25,15.03125 46.314433,12.782581 44.48151,10.91172 42.21875,9.90625 41.08737,9.4035148 39.876784,9.1164909 38.65625,9.0625 z"
       inkscape:connector-curvature="0" />
    <path
       style="font-size:medium;font-style:normal;font-variant:normal;font-weight:normal;font-stretch:normal;text-indent:0;text-align:start;text-decoration:none;line-height:normal;letter-spacing:normal;word-spacing:normal;text-transform:none;direction:ltr;block-progression:tb;writing-mode:lr-tb;text-anchor:start;baseline-shift:baseline;color:#000000;fill:#000000;fill-opacity:1;stroke:none;stroke-width:2.28067422;marker:none;visibility:visible;display:inline;overflow:visible;enable-background:accumulate;font-family:Sans;-inkscape-font-specification:Sans"
       id="path3991-6"
       d="M 30.03125,13.84375 C 29.239205,15.386909 27.737914,16.617387 26,17.125 24.262086,17.632613 22.237839,17.422389 20.5625,16.5625 L 19.5,18.59375 c 2.202879,1.130656 4.818403,1.401592 7.15625,0.71875 2.337847,-0.682842 4.312518,-2.306557 5.40625,-4.4375 l -2.03125,-1.03125 z"
       inkscape:connector-curvature="0" />
    <path
       style="font-size:medium;font-style:normal;font-variant:normal;font-weight:normal;font-stretch:normal;text-indent:0;text-align:start;text-decoration:none;line-height:normal;letter-spacing:normal;word-spacing:normal;text-transform:none;direction:ltr;block-progression:tb;writing-mode:lr-tb;text-anchor:start;baseline-shift:baseline;color:#000000;fill:#000000;fill-opacity:1;stroke:none;stroke-width:2.28067422;marker:none;visibility:visible;display:inline;overflow:visible;enable-background:accumulate;font-family:Sans;-inkscape-font-specification:Sans"
       id="path3991-5"
       d="m 49.625,31.03125 -0.96875,2.0625 c 1.578341,0.718879 2.880251,2.163001 3.46875,3.875 0.588499,1.711999 0.467606,3.755056 -0.3125,5.46875 -0.780106,1.713694 -2.228669,3.132064 -3.90625,3.8125 -1.677581,0.680436 -3.608867,0.655736 -5.1875,-0.0625 l -0.9375,2.0625 c 2.179922,0.991807 4.712081,1.040318 6.96875,0.125 2.256669,-0.915318 4.130503,-2.746697 5.15625,-5 1.025747,-2.253303 1.166644,-4.853282 0.375,-7.15625 -0.791644,-2.302968 -2.476732,-4.194806 -4.65625,-5.1875 z"
       inkscape:connector-curvature="0" />
    <path
       style="font-size:medium;font-style:normal;font-variant:normal;font-weight:normal;font-stretch:normal;text-indent:0;text-align:start;text-decoration:none;line-height:normal;letter-spacing:normal;word-spacing:normal;text-transform:none;direction:ltr;block-progression:tb;writing-mode:lr-tb;text-anchor:start;baseline-shift:baseline;color:#000000;fill:#000000;fill-opacity:1;stroke:none;stroke-width:2.28067446;marker:none;visibility:visible;display:inline;overflow:visible;enable-background:accumulate;font-family:Sans;-inkscape-font-specification:Sans"
       id="path3991-6-5"
       d="m 45.4375,20.59375 c -1.150513,2.192573 -1.442941,4.781079 -0.78125,7.125 0.661691,2.343921 2.254026,4.324559 4.375,5.4375 l 1.0625,-2 c -1.535939,-0.805955 -2.75811,-2.32007 -3.25,-4.0625 -0.49189,-1.74243 -0.281241,-3.769999 0.59375,-5.4375 l -2,-1.0625 z"
       inkscape:connector-curvature="0" />
    <path
       style="font-size:medium;font-style:normal;font-variant:normal;font-weight:normal;font-stretch:normal;text-indent:0;text-align:start;text-decoration:none;line-height:normal;letter-spacing:normal;word-spacing:normal;text-transform:none;direction:ltr;block-progression:tb;writing-mode:lr-tb;text-anchor:start;baseline-shift:baseline;color:#000000;fill:#000000;fill-opacity:1;stroke:none;stroke-width:2.28067422;marker:none;visibility:visible;display:inline;overflow:visible;enable-background:accumulate;font-family:Sans;-inkscape-font-specification:Sans"
       id="path3991-5-4"
       d="m 17.125,41.8125 c -1.127703,2.113162 -1.333743,4.658559 -0.5625,6.96875 0.771243,2.310191 2.471753,4.302978 4.65625,5.46875 2.184497,1.165772 4.776523,1.457831 7.125,0.8125 2.348477,-0.645331 4.341047,-2.199338 5.46875,-4.3125 l -2,-1.09375 c -0.816646,1.530282 -2.316684,2.739022 -4.0625,3.21875 -1.745816,0.479728 -3.80739,0.230346 -5.46875,-0.65625 -1.66136,-0.886596 -2.989172,-2.438895 -3.5625,-4.15625 -0.573328,-1.717355 -0.410396,-3.625968 0.40625,-5.15625 l -2,-1.09375 z"
       inkscape:connector-curvature="0" />
    <path
       style="font-size:medium;font-style:normal;font-variant:normal;font-weight:normal;font-stretch:normal;text-indent:0;text-align:start;text-decoration:none;line-height:normal;letter-spacing:normal;word-spacing:normal;text-transform:none;direction:ltr;block-progression:tb;writing-mode:lr-tb;text-anchor:start;baseline-shift:baseline;color:#000000;fill:#000000;fill-opacity:1;stroke:none;stroke-width:2.28067422;marker:none;visibility:visible;display:inline;overflow:visible;enable-background:accumulate;font-family:Sans;-inkscape-font-specification:Sans"
       id="path3991-6-5-3"
       d="m 41.1875,45.6875 c -1.203634,-0.209483 -2.465779,-0.193877 -3.65625,0.0625 -2.380942,0.512753 -4.474435,1.984582 -5.71875,4.03125 l 1.96875,1.1875 c 0.901092,-1.48213 2.480049,-2.587578 4.25,-2.96875 1.769951,-0.381172 3.765918,-0.04078 5.375,0.9375 L 44.59375,47 C 43.53587,46.356839 42.391134,45.896983 41.1875,45.6875 z"
       inkscape:connector-curvature="0" />
    <path
       style="font-size:medium;font-style:normal;font-variant:normal;font-weight:normal;font-stretch:normal;text-indent:0;text-align:start;text-decoration:none;line-height:normal;letter-spacing:normal;word-spacing:normal;text-transform:none;direction:ltr;block-progression:tb;writing-mode:lr-tb;text-anchor:start;baseline-shift:baseline;color:#000000;fill:#000000;fill-opacity:1;stroke:none;stroke-width:2.28067422;marker:none;visibility:visible;display:inline;overflow:visible;enable-background:accumulate;font-family:Sans;-inkscape-font-specification:Sans"
       id="path3991-5-4-8"
       d="m 17.4375,16.21875 c -1.192042,0.02562 -2.388942,0.314002 -3.5,0.8125 -2.222116,0.996995 -4.0258279,2.866719 -4.96875,5.15625 -0.9429221,2.289531 -1.0005118,4.883526 -0.125,7.15625 0.8755118,2.272724 2.660235,4.119119 4.875,5.03125 l 0.875,-2.09375 c -1.60386,-0.660535 -2.97416,-2.060497 -3.625,-3.75 -0.65084,-1.689503 -0.592114,-3.72751 0.125,-5.46875 0.717114,-1.74124 2.129369,-3.227601 3.78125,-3.96875 1.651881,-0.741149 3.58364,-0.785535 5.1875,-0.125 l 0.875,-2.09375 c -1.107383,-0.456065 -2.307958,-0.681869 -3.5,-0.65625 z"
       inkscape:connector-curvature="0" />
    <path
       style="font-size:medium;font-style:normal;font-variant:normal;font-weight:normal;font-stretch:normal;text-indent:0;text-align:start;text-decoration:none;line-height:normal;letter-spacing:normal;word-spacing:normal;text-transform:none;direction:ltr;block-progression:tb;writing-mode:lr-tb;text-anchor:start;baseline-shift:baseline;color:#000000;fill:#000000;fill-opacity:1;stroke:none;stroke-width:2.28067422;marker:none;visibility:visible;display:inline;overflow:visible;enable-background:accumulate;font-family:Sans;-inkscape-font-specification:Sans"
       id="path3991-6-5-3-4"
       d="M 14.40625,32.1875 13.4375,34.25 c 1.564337,0.749348 2.81983,2.182938 3.375,3.90625 0.55517,1.723312 0.407285,3.770419 -0.40625,5.46875 l 2.0625,1 c 1.069705,-2.233112 1.246816,-4.838047 0.5,-7.15625 -0.746816,-2.318203 -2.402312,-4.246478 -4.5625,-5.28125 z"
       inkscape:connector-curvature="0" />
    <path
       style="font-size:medium;font-style:normal;font-variant:normal;font-weight:normal;font-stretch:normal;text-indent:0;text-align:start;text-decoration:none;line-height:normal;letter-spacing:normal;word-spacing:normal;text-transform:none;direction:ltr;block-progression:tb;writing-mode:lr-tb;text-anchor:start;baseline-shift:baseline;color:#000000;fill:#000000;fill-opacity:1;stroke:none;stroke-width:2.28067446;marker:none;visibility:visible;display:inline;overflow:visible;enable-background:accumulate;font-family:Sans;-inkscape-font-specification:Sans"
       id="path3991-4"
       d="m 25.25,8.875 c -1.218946,0.083543 -2.412318,0.4074468 -3.53125,0.9375 -2.237865,1.060106 -4.025538,2.947867 -4.90625,5.21875 -0.880712,2.270883 -0.806973,4.835325 0.21875,7 l 2.0625,-1 C 18.350957,19.463666 18.282797,17.563127 18.9375,15.875 c 0.654703,-1.688127 2.048055,-3.193766 3.75,-4 1.701945,-0.806234 3.747781,-0.937739 5.46875,-0.375 1.720969,0.56274 3.163797,1.838505 3.90625,3.40625 l 2.0625,-1 C 33.099747,11.741352 31.190062,10.069502 28.875,9.3125 27.717469,8.933999 26.468946,8.7914574 25.25,8.875 z"
       inkscape:connector-curvature="0" />
    <path
       style="font-size:medium;font-style:normal;font-variant:normal;font-weight:normal;font-stretch:normal;text-indent:0;text-align:start;text-decoration:none;line-height:normal;letter-spacing:normal;word-spacing:normal;text-transform:none;direction:ltr;block-progression:tb;writing-mode:lr-tb;text-anchor:start;baseline-shift:baseline;color:#000000;fill:#000000;fill-opacity:1;stroke:none;stroke-width:2.28067446;marker:none;visibility:visible;display:inline;overflow:visible;enable-background:accumulate;font-family:Sans;-inkscape-font-specification:Sans"
       id="path3991-6-1"
       d="M 18.84375,20.75 16.75,21.625 c 0.653593,1.606702 0.592036,3.538838 -0.15625,5.1875 -0.748286,1.648662 -2.224425,3.040424 -3.96875,3.75 l 0.875,2.125 c 2.293589,-0.933011 4.180904,-2.719716 5.1875,-4.9375 1.006596,-2.217784 1.058794,-4.78131 0.15625,-7 z"
       inkscape:connector-curvature="0" />
    <path
       style="font-size:medium;font-style:normal;font-variant:normal;font-weight:normal;font-stretch:normal;text-indent:0;text-align:start;text-decoration:none;line-height:normal;letter-spacing:normal;word-spacing:normal;text-transform:none;direction:ltr;block-progression:tb;writing-mode:lr-tb;text-anchor:start;baseline-shift:baseline;color:#000000;fill:#000000;fill-opacity:1;stroke:none;stroke-width:2.28067422;marker:none;visibility:visible;display:inline;overflow:visible;enable-background:accumulate;font-family:Sans;-inkscape-font-specification:Sans"
       id="path3991-5-0"
       d="m 46,17.1875 c -1.192125,0.02538 -2.381822,0.278184 -3.46875,0.78125 L 43.5,20.03125 c 1.574232,-0.728606 3.505353,-0.763678 5.1875,-0.09375 1.682147,0.669928 3.146675,2.072087 3.9375,3.78125 0.790825,1.709163 0.92202,3.752934 0.34375,5.46875 -0.57827,1.715816 -1.863105,3.177996 -3.4375,3.90625 L 50.5,35.15625 c 2.174081,-1.005646 3.847107,-2.910619 4.625,-5.21875 0.777893,-2.308131 0.633596,-4.908894 -0.40625,-7.15625 C 53.678904,20.533894 51.794088,18.713693 49.53125,17.8125 48.399831,17.361904 47.192125,17.162122 46,17.1875 z"
       inkscape:connector-curvature="0" />
    <path
       style="font-size:medium;font-style:normal;font-variant:normal;font-weight:normal;font-stretch:normal;text-indent:0;text-align:start;text-decoration:none;line-height:normal;letter-spacing:normal;word-spacing:normal;text-transform:none;direction:ltr;block-progression:tb;writing-mode:lr-tb;text-anchor:start;baseline-shift:baseline;color:#000000;fill:#000000;fill-opacity:1;stroke:none;stroke-width:2.28067446;marker:none;visibility:visible;display:inline;overflow:visible;enable-background:accumulate;font-family:Sans;-inkscape-font-specification:Sans"
       id="path3991-6-5-1"
       d="m 34.03125,13.5 -2.125,0.84375 c 0.91225,2.301925 2.697652,4.192157 4.90625,5.21875 2.208598,1.026593 4.741996,1.13246 6.96875,0.25 l -0.84375,-2.125 c -1.612542,0.639049 -3.514417,0.575652 -5.15625,-0.1875 -1.641833,-0.763152 -3.056214,-2.249335 -3.75,-4 z"
       inkscape:connector-curvature="0" />
    <path
       style="font-size:medium;font-style:normal;font-variant:normal;font-weight:normal;font-stretch:normal;text-indent:0;text-align:start;text-decoration:none;line-height:normal;letter-spacing:normal;word-spacing:normal;text-transform:none;direction:ltr;block-progression:tb;writing-mode:lr-tb;text-anchor:start;baseline-shift:baseline;color:#000000;fill:#000000;fill-opacity:1;stroke:none;stroke-width:2.28067422;marker:none;visibility:visible;display:inline;overflow:visible;enable-background:accumulate;font-family:Sans;-inkscape-font-specification:Sans"
       id="path3991-5-4-88"
       d="m 47.1875,42.78125 -2.125,0.84375 c 0.628286,1.617041 0.555745,3.550711 -0.21875,5.1875 -0.774495,1.636789 -2.275529,3.005835 -4.03125,3.6875 -1.755721,0.681665 -3.792677,0.685348 -5.46875,0 -1.676073,-0.685348 -3.060021,-2.070146 -3.6875,-3.6875 l -2.125,0.84375 c 0.866487,2.233408 2.682821,4.015559 4.9375,4.9375 2.254679,0.921941 4.847671,0.927564 7.15625,0.03125 2.308579,-0.896314 4.239387,-2.641915 5.28125,-4.84375 1.041863,-2.201835 1.148851,-4.767024 0.28125,-7 z"
       inkscape:connector-curvature="0" />
    <path
       style="font-size:medium;font-style:normal;font-variant:normal;font-weight:normal;font-stretch:normal;text-indent:0;text-align:start;text-decoration:none;line-height:normal;letter-spacing:normal;word-spacing:normal;text-transform:none;direction:ltr;block-progression:tb;writing-mode:lr-tb;text-anchor:start;baseline-shift:baseline;color:#000000;fill:#000000;fill-opacity:1;stroke:none;stroke-width:2.28067446;marker:none;visibility:visible;display:inline;overflow:visible;enable-background:accumulate;font-family:Sans;-inkscape-font-specification:Sans"
       id="path3991-6-5-3-9"
       d="m 51.375,32.1875 c -2.35481,0.76546 -4.367594,2.391693 -5.53125,4.53125 -1.163656,2.139557 -1.427964,4.690838 -0.6875,6.96875 l 2.1875,-0.71875 c -0.53622,-1.649589 -0.365042,-3.565741 0.5,-5.15625 0.865042,-1.590509 2.459114,-2.886601 4.25,-3.46875 L 51.375,32.1875 z"
       inkscape:connector-curvature="0" />
    <path
       style="font-size:medium;font-style:normal;font-variant:normal;font-weight:normal;font-stretch:normal;text-indent:0;text-align:start;text-decoration:none;line-height:normal;letter-spacing:normal;word-spacing:normal;text-transform:none;direction:ltr;block-progression:tb;writing-mode:lr-tb;text-anchor:start;baseline-shift:baseline;color:#000000;fill:#000000;fill-opacity:1;stroke:none;stroke-width:2.28067446;marker:none;visibility:visible;display:inline;overflow:visible;enable-background:accumulate;font-family:Sans;-inkscape-font-specification:Sans"
       id="path3991-5-4-8-8"
       d="m 13.09375,30.5 c -2.135957,1.084318 -3.7443607,3.039994 -4.4375,5.375 -0.6931393,2.335006 -0.4337038,4.948331 0.6875,7.15625 1.121204,2.207919 3.049494,3.932023 5.34375,4.75 2.294256,0.817977 4.864319,0.678613 7,-0.40625 L 20.65625,45.34375 C 19.109663,46.12937 17.174251,46.233066 15.46875,45.625 13.763249,45.016934 12.2277,43.67917 11.375,42 c -0.8527,-1.67917 -1.046515,-3.732956 -0.53125,-5.46875 0.515265,-1.735794 1.734463,-3.214774 3.28125,-4 L 13.09375,30.5 z"
       inkscape:connector-curvature="0" />
    <path
       style="font-size:medium;font-style:normal;font-variant:normal;font-weight:normal;font-stretch:normal;text-indent:0;text-align:start;text-decoration:none;line-height:normal;letter-spacing:normal;word-spacing:normal;text-transform:none;direction:ltr;block-progression:tb;writing-mode:lr-tb;text-anchor:start;baseline-shift:baseline;color:#000000;fill:#000000;fill-opacity:1;stroke:none;stroke-width:2.28067446;marker:none;visibility:visible;display:inline;overflow:visible;enable-background:accumulate;font-family:Sans;-inkscape-font-specification:Sans"
       id="path3991-6-5-3-4-5"
       d="m 23.9375,44.6875 c -1.192316,0.002 -2.372223,0.23717 -3.46875,0.71875 L 21.375,47.5 c 1.588138,-0.697489 3.518902,-0.702707 5.1875,0 1.668598,0.702707 3.117767,2.150829 3.875,3.875 l 2.09375,-0.9375 C 31.535575,48.170412 29.713352,46.351533 27.46875,45.40625 26.346449,44.933608 25.129816,44.685515 23.9375,44.6875 z"
       inkscape:connector-curvature="0" />
    <path
       style="font-size:medium;font-style:normal;font-variant:normal;font-weight:normal;font-stretch:normal;text-indent:0;text-align:start;text-decoration:none;line-height:normal;letter-spacing:normal;word-spacing:normal;text-transform:none;direction:ltr;block-progression:tb;writing-mode:lr-tb;text-anchor:start;baseline-shift:baseline;color:#000000;fill:#000000;fill-opacity:1;stroke:none;stroke-width:0.86230606;marker:none;visibility:visible;display:inline;overflow:visible;enable-background:accumulate;font-family:Sans;-inkscape-font-specification:Sans"
       id="path4885"
       d="m 45.15625,5.0625 c -1.208222,-0.036681 -2.275391,0.9480411 -2.3125,2.15625 -0.03713,1.2087775 0.97871,2.2758022 2.1875,2.3125 1.20879,0.036698 2.27623,-0.9786965 2.3125,-2.1875 C 47.38,6.1355151 46.364472,5.0991806 45.15625,5.0625 z M 45.125,5.90625 c 0.685553,0.020813 1.36432,0.75194 1.34375,1.4375 C 46.44817,8.029596 45.748339,8.6770715 45.0625,8.65625 44.376661,8.6354285 43.697686,7.9358312 43.71875,7.25 43.739806,6.5644548 44.439447,5.8854372 45.125,5.90625 z"
       inkscape:connector-curvature="0" />
    <path
       style="font-size:medium;font-style:normal;font-variant:normal;font-weight:normal;font-stretch:normal;text-indent:0;text-align:start;text-decoration:none;line-height:normal;letter-spacing:normal;word-spacing:normal;text-transform:none;direction:ltr;block-progression:tb;writing-mode:lr-tb;text-anchor:start;baseline-shift:baseline;color:#000000;fill:#000000;fill-opacity:1;stroke:none;stroke-width:0.86230606;marker:none;visibility:visible;display:inline;overflow:visible;enable-background:accumulate;font-family:Sans;-inkscape-font-specification:Sans"
       id="path4885-8"
       d="m 21.65625,3.625 c -1.208222,-0.036681 -2.275391,0.9792911 -2.3125,2.1875 -0.03713,1.2087775 0.97871,2.2445522 2.1875,2.28125 1.20879,0.036698 2.27623,-0.9474465 2.3125,-2.15625 C 23.88,4.7292651 22.864472,3.6616806 21.65625,3.625 z M 21.625,4.5 c 0.685553,0.020813 1.36432,0.72069 1.34375,1.40625 C 22.948172,6.592096 22.248339,7.2708215 21.5625,7.25 20.876661,7.2291785 20.197686,6.4983312 20.21875,5.8125 20.239806,5.1269548 20.939447,4.4791872 21.625,4.5 z"
       inkscape:connector-curvature="0" />
    <path
       style="font-size:medium;font-style:normal;font-variant:normal;font-weight:normal;font-stretch:normal;text-indent:0;text-align:start;text-decoration:none;line-height:normal;letter-spacing:normal;word-spacing:normal;text-transform:none;direction:ltr;block-progression:tb;writing-mode:lr-tb;text-anchor:start;baseline-shift:baseline;color:#000000;fill:#000000;fill-opacity:1;stroke:none;stroke-width:0.86230606;marker:none;visibility:visible;display:inline;overflow:visible;enable-background:accumulate;font-family:Sans;-inkscape-font-specification:Sans"
       id="path4885-8-4"
       d="M 6,16.6875 C 4.7915927,16.650814 3.7243349,17.666597 3.6875,18.875 3.6509625,20.083412 4.6665927,21.119564 5.875,21.15625 7.0834073,21.192936 8.1194151,20.208403 8.15625,19 8.1927875,17.791588 7.2084073,16.724186 6,16.6875 z m -0.03125,0.875 C 6.6543963,17.58332 7.3332312,18.283101 7.3125,18.96875 7.2916,19.654393 6.5606463,20.333316 5.875,20.3125 5.1893537,20.291684 4.5417688,19.560649 4.5625,18.875 4.5834,18.189357 5.2831037,17.541684 5.96875,17.5625 z"
       inkscape:connector-curvature="0" />
    <path
       style="font-size:medium;font-style:normal;font-variant:normal;font-weight:normal;font-stretch:normal;text-indent:0;text-align:start;text-decoration:none;line-height:normal;letter-spacing:normal;word-spacing:normal;text-transform:none;direction:ltr;block-progression:tb;writing-mode:lr-tb;text-anchor:start;baseline-shift:baseline;color:#000000;fill:#000000;fill-opacity:1;stroke:none;stroke-width:0.86230606;marker:none;visibility:visible;display:inline;overflow:visible;enable-background:accumulate;font-family:Sans;-inkscape-font-specification:Sans"
       id="path4885-8-41"
       d="M 6.4375,43.46875 C 5.2290927,43.432064 4.1618349,44.416597 4.125,45.625 4.088159,46.833601 5.1038952,47.900808 6.3125,47.9375 7.5211048,47.97419 8.5884565,46.98986 8.625,45.78125 8.661537,44.572838 7.6459073,43.505436 6.4375,43.46875 z m -0.03125,0.875 C 7.0918963,44.364566 7.7707312,45.064351 7.75,45.75 7.7292657,46.435748 7.0294956,47.114569 6.34375,47.09375 5.6580044,47.072931 4.979097,46.341993 5,45.65625 5.0209,44.970607 5.7206037,44.322934 6.40625,44.34375 z"
       inkscape:connector-curvature="0" />
    <path
       style="font-size:medium;font-style:normal;font-variant:normal;font-weight:normal;font-stretch:normal;text-indent:0;text-align:start;text-decoration:none;line-height:normal;letter-spacing:normal;word-spacing:normal;text-transform:none;direction:ltr;block-progression:tb;writing-mode:lr-tb;text-anchor:start;baseline-shift:baseline;color:#000000;fill:#000000;fill-opacity:1;stroke:none;stroke-width:0.86230606;marker:none;visibility:visible;display:inline;overflow:visible;enable-background:accumulate;font-family:Sans;-inkscape-font-specification:Sans"
       id="path4885-8-41-0"
       d="m 21.625,56.53125 c -1.208222,-0.03668 -2.275391,0.948041 -2.3125,2.15625 -0.03713,1.208777 0.97871,2.275802 2.1875,2.3125 1.20879,0.0367 2.27623,-0.947446 2.3125,-2.15625 0.03625,-1.208235 -0.979278,-2.275819 -2.1875,-2.3125 z M 21.59375,57.375 c 0.685553,0.02081 1.36432,0.75194 1.34375,1.4375 -0.02058,0.685846 -0.720411,1.364571 -1.40625,1.34375 -0.685839,-0.02082 -1.364814,-0.751669 -1.34375,-1.4375 0.02106,-0.685545 0.720697,-1.364563 1.40625,-1.34375 z"
       inkscape:connector-curvature="0" />
    <path
       style="font-size:medium;font-style:normal;font-variant:normal;font-weight:normal;font-stretch:normal;text-indent:0;text-align:start;text-decoration:none;line-height:normal;letter-spacing:normal;word-spacing:normal;text-transform:none;direction:ltr;block-progression:tb;writing-mode:lr-tb;text-anchor:start;baseline-shift:baseline;color:#000000;fill:#000000;fill-opacity:1;stroke:none;stroke-width:0.86230606;marker:none;visibility:visible;display:inline;overflow:visible;enable-background:accumulate;font-family:Sans;-inkscape-font-specification:Sans"
       id="path4885-8-41-0-1"
       d="M 44.8125,55.34375 C 43.604278,55.307069 42.537109,56.291791 42.5,57.5 c -0.03713,1.208777 0.97871,2.275802 2.1875,2.3125 1.20879,0.0367 2.24498,-0.947446 2.28125,-2.15625 0.03625,-1.208235 -0.948028,-2.275819 -2.15625,-2.3125 z m -0.03125,0.84375 c 0.685553,0.02081 1.36432,0.75194 1.34375,1.4375 -0.02058,0.685846 -0.751661,1.364571 -1.4375,1.34375 -0.685839,-0.02082 -1.333564,-0.751669 -1.3125,-1.4375 0.02106,-0.685545 0.720697,-1.364563 1.40625,-1.34375 z"
       inkscape:connector-curvature="0" />
    <path
       style="font-size:medium;font-style:normal;font-variant:normal;font-weight:normal;font-stretch:normal;text-indent:0;text-align:start;text-decoration:none;line-height:normal;letter-spacing:normal;word-spacing:normal;text-transform:none;direction:ltr;block-progression:tb;writing-mode:lr-tb;text-anchor:start;baseline-shift:baseline;color:#000000;fill:#000000;fill-opacity:1;stroke:none;stroke-width:0.86230606;marker:none;visibility:visible;display:inline;overflow:visible;enable-background:accumulate;font-family:Sans;-inkscape-font-specification:Sans"
       id="path4885-8-41-0-1-8"
       d="m 58.28125,41.75 c -1.208222,-0.03668 -2.275391,0.948041 -2.3125,2.15625 -0.03713,1.208777 0.97871,2.275802 2.1875,2.3125 1.20879,0.0367 2.27623,-0.978696 2.3125,-2.1875 C 60.505,42.823015 59.489472,41.786681 58.28125,41.75 z M 58.25,42.59375 c 0.685553,0.02081 1.36432,0.75194 1.34375,1.4375 -0.02058,0.685846 -0.720411,1.333321 -1.40625,1.3125 -0.685839,-0.02082 -1.364814,-0.720419 -1.34375,-1.40625 0.02106,-0.685545 0.720697,-1.364563 1.40625,-1.34375 z"
       inkscape:connector-curvature="0" />
    <path
       style="font-size:medium;font-style:normal;font-variant:normal;font-weight:normal;font-stretch:normal;text-indent:0;text-align:start;text-decoration:none;line-height:normal;letter-spacing:normal;word-spacing:normal;text-transform:none;direction:ltr;block-progression:tb;writing-mode:lr-tb;text-anchor:start;baseline-shift:baseline;color:#000000;fill:#000000;fill-opacity:1;stroke:none;stroke-width:0.86230606;marker:none;visibility:visible;display:inline;overflow:visible;enable-background:accumulate;font-family:Sans;-inkscape-font-specification:Sans"
       id="path4885-8-41-0-1-8-5"
       d="m 59.4375,20.03125 c -1.20879,-0.0367 -2.27623,0.978696 -2.3125,2.1875 -0.03625,1.208235 0.948028,2.275819 2.15625,2.3125 1.208222,0.03668 2.275391,-0.979291 2.3125,-2.1875 0.03713,-1.208777 -0.94746,-2.275802 -2.15625,-2.3125 z m -0.03125,0.875 c 0.685839,0.02082 1.333564,0.720419 1.3125,1.40625 -0.02106,0.685545 -0.720697,1.364563 -1.40625,1.34375 -0.685553,-0.02081 -1.36432,-0.72069 -1.34375,-1.40625 0.02058,-0.685846 0.751661,-1.364571 1.4375,-1.34375 z"
       inkscape:connector-curvature="0" />
    <path
       id="path4239"
       style="fill:#000000;fill-opacity:1;stroke:#000000;stroke-width:0.86230606;stroke-linecap:butt;stroke-linejoin:bevel;stroke-miterlimit:4;stroke-opacity:1;stroke-dasharray:none"
       d="m 25.307536,34.003385 a 1.6523012,1.730982 1.738915 0 1 -3.30308,-0.100279 1.6523012,1.730982 1.738915 1 1 3.30308,0.100279 z"
       inkscape:connector-curvature="0" />
    <path
       id="path4241"
       style="fill:#000000;fill-opacity:1;stroke:#000000;stroke-width:1.17610288;stroke-linecap:butt;stroke-linejoin:bevel;stroke-miterlimit:4;stroke-opacity:1;stroke-dasharray:none"
       d="m 33.375045,33.461134 a 2.2535805,2.3608936 1.738915 0 1 -4.505085,-0.136771 2.2535805,2.3608936 1.738915 0 1 4.505085,0.136771 z"
       inkscape:connector-curvature="0" />
    <path
       id="path4243"
       style="fill:#000000;fill-opacity:1;stroke:#000000;stroke-width:1.0132792;stroke-linecap:butt;stroke-linejoin:bevel;stroke-miterlimit:4;stroke-opacity:1;stroke-dasharray:none"
       d="m 40.260877,33.261731 a 1.9415873,2.0340435 1.7389152 1 1 -3.881386,-0.117836 1.9415873,2.0340435 1.7389152 0 1 3.881386,0.117836 z"
       inkscape:connector-curvature="0" />
    <path
       id="path4245"
       style="fill:#000000;fill-opacity:1;stroke:#000000;stroke-width:0.68763202;stroke-linecap:butt;stroke-linejoin:bevel;stroke-miterlimit:4;stroke-opacity:1;stroke-dasharray:none"
       d="m 26.087292,25.810736 a 1.3176009,1.3803435 1.7389151 1 1 -2.633988,-0.07996 1.3176009,1.3803435 1.7389151 0 1 2.633988,0.07996 z"
       inkscape:connector-curvature="0" />
    <path
       id="path4247"
       style="fill:#000000;fill-opacity:1;stroke:#000000;stroke-width:0.91558504;stroke-linecap:butt;stroke-linejoin:bevel;stroke-miterlimit:4;stroke-opacity:1;stroke-dasharray:none"
       d="m 34.024638,25.078917 a 1.7543914,1.8379335 1.7389151 1 1 -3.507167,-0.106475 1.7543914,1.8379335 1.7389151 0 1 3.507167,0.106475 z"
       inkscape:connector-curvature="0" />
    <path
       id="path4249"
       style="fill:#000000;fill-opacity:1;stroke:#000000;stroke-width:0.49224365;stroke-linecap:butt;stroke-linejoin:bevel;stroke-miterlimit:4;stroke-opacity:1;stroke-dasharray:none"
       d="m 40.303215,24.895207 a 0.94320892,0.98812348 1.7389148 0 1 -1.885549,-0.05724 0.94320892,0.98812348 1.7389148 1 1 1.885549,0.05724 z"
       inkscape:connector-curvature="0" />
    <path
       id="path4251"
       style="fill:#000000;fill-opacity:1;stroke:#000000;stroke-width:0.63435304;stroke-linecap:butt;stroke-linejoin:bevel;stroke-miterlimit:4;stroke-opacity:1;stroke-dasharray:none"
       d="m 24.044249,40.477755 a 1.2155108,1.2733921 1.7389151 1 1 -2.429902,-0.07377 1.2155108,1.2733921 1.7389151 0 1 2.429902,0.07377 z"
       inkscape:connector-curvature="0" />
    <path
       id="path4253"
       style="fill:#000000;fill-opacity:1;stroke:#000000;stroke-width:0.49224365;stroke-linecap:butt;stroke-linejoin:bevel;stroke-miterlimit:4;stroke-opacity:1;stroke-dasharray:none"
       d="m 31.397596,40.800522 a 0.94320892,0.98812348 1.7389148 1 1 -1.885549,-0.05724 0.94320892,0.98812348 1.7389148 0 1 1.885549,0.05724 z"
       inkscape:connector-curvature="0" />
    <path
       id="path4255"
       style="fill:#000000;fill-opacity:1;stroke:#000000;stroke-width:0.49224365;stroke-linecap:butt;stroke-linejoin:bevel;stroke-miterlimit:4;stroke-opacity:1;stroke-dasharray:none"
       d="m 38.66634,39.919153 a 0.94320892,0.98812348 1.7389148 1 1 -1.885549,-0.05724 0.94320892,0.98812348 1.7389148 0 1 1.885549,0.05724 z"
       inkscape:connector-curvature="0" />
  </g>
</svg>
